# xmcd
#
# Track frame offsets: 
#        182
#        18655
#        32367
#        50605
#        68405
#        80305
#        94030
#        105175
#        118005
#        127980
#        158792
#        191280
#
# Disc length: 2859 seconds
#
# Revision: 1
# Processed by: cddbd v1.5.2PL0 Copyright (c) Steve Scherf et al.
# Submitted via: ExactAudioCopy v0.99pb5
#
DISCID=840b290c
DTITLE=Various Artist - Blues Anthology [Millenium]
DYEAR=1900
DGENRE=Blues
TTITLE0=Otis Rush - May Be The Last Time
TTITLE1=Otis Rush - I Feel Good
TTITLE2=Otis Rush - Otis' Blues
TTITLE3=Jimmy Witherspoon - Gee Baby Ain't I Good For You
TTITLE4=Jimmy Witherspoon - I Make a Lot of Money
TTITLE5=Jimmy Witherspoon - Blowin' the Blues
TTITLE6=Memphis SLim - Ballin' the Jack
TTITLE7=Memphis Slim - I am the Blues
TTITLE8=Memphis Slim - Caledonia
TTITLE9=Freddie King - Big Leg Woman
TTITLE10=Freddie King - The Moon is Rising
TTITLE11=Freddie King - Feelin' Alright
EXTD=
EXTT0=
EXTT1=
EXTT2=
EXTT3=
EXTT4=
EXTT5=
EXTT6=
EXTT7=
EXTT8=
EXTT9=
EXTT10=
EXTT11=
PLAYORDER=
